<?xml version="1.0" encoding="utf-8" standalone="no"?>
<!DOCTYPE svg PUBLIC "-//W3C//DTD SVG 1.1//EN"
  "http://www.w3.org/Graphics/SVG/1.1/DTD/svg11.dtd">
<svg xmlns:xlink="http://www.w3.org/1999/xlink" width="398.50625pt" height="213.760531pt" viewBox="0 0 398.50625 213.760531" xmlns="http://www.w3.org/2000/svg" version="1.1">
 <metadata>
  <rdf:RDF xmlns:dc="http://purl.org/dc/elements/1.1/" xmlns:cc="http://creativecommons.org/ns#" xmlns:rdf="http://www.w3.org/1999/02/22-rdf-syntax-ns#">
   <cc:Work>
    <dc:type rdf:resource="http://purl.org/dc/dcmitype/StillImage"/>
    <dc:date>2023-05-09T00:18:01.887334</dc:date>
    <dc:format>image/svg+xml</dc:format>
    <dc:creator>
     <cc:Agent>
      <dc:title>Matplotlib v3.5.1, https://matplotlib.org/</dc:title>
     </cc:Agent>
    </dc:creator>
   </cc:Work>
  </rdf:RDF>
 </metadata>
 <defs>
  <style type="text/css">*{stroke-linejoin: round; stroke-linecap: butt}</style>
 </defs>
 <g id="figure_1">
  <g id="patch_1">
   <path d="M 0 213.760531 
L 398.50625 213.760531 
L 398.50625 0 
L 0 0 
z
" style="fill: #ffffff"/>
  </g>
  <g id="axes_1">
   <g id="patch_2">
    <path d="M 43.78125 176.204281 
L 378.58125 176.204281 
L 378.58125 9.884281 
L 43.78125 9.884281 
z
" style="fill: #ffffff"/>
   </g>
   <g id="matplotlib.axis_1">
    <g id="xtick_1">
     <g id="line2d_1">
      <path d="M 110.473142 176.204281 
L 110.473142 9.884281 
" clip-path="url(#pf763ae6a0d)" style="fill: none; stroke: #b0b0b0; stroke-width: 0.8; stroke-linecap: square"/>
     </g>
     <g id="line2d_2">
      <defs>
       <path id="m50c5ff60f7" d="M 0 0 
L 0 3.5 
" style="stroke: #000000; stroke-width: 0.8"/>
      </defs>
      <g>
       <use xlink:href="#m50c5ff60f7" x="110.473142" y="176.204281" style="stroke: #000000; stroke-width: 0.8"/>
      </g>
     </g>
     <g id="text_1">
      <!-- 200 -->
      <g transform="translate(100.929392 190.802718)scale(0.1 -0.1)">
       <defs>
        <path id="DejaVuSans-32" d="M 1228 531 
L 3431 531 
L 3431 0 
L 469 0 
L 469 531 
Q 828 903 1448 1529 
Q 2069 2156 2228 2338 
Q 2531 2678 2651 2914 
Q 2772 3150 2772 3378 
Q 2772 3750 2511 3984 
Q 2250 4219 1831 4219 
Q 1534 4219 1204 4116 
Q 875 4013 500 3803 
L 500 4441 
Q 881 4594 1212 4672 
Q 1544 4750 1819 4750 
Q 2544 4750 2975 4387 
Q 3406 4025 3406 3419 
Q 3406 3131 3298 2873 
Q 3191 2616 2906 2266 
Q 2828 2175 2409 1742 
Q 1991 1309 1228 531 
z
" transform="scale(0.015625)"/>
        <path id="DejaVuSans-30" d="M 2034 4250 
Q 1547 4250 1301 3770 
Q 1056 3291 1056 2328 
Q 1056 1369 1301 889 
Q 1547 409 2034 409 
Q 2525 409 2770 889 
Q 3016 1369 3016 2328 
Q 3016 3291 2770 3770 
Q 2525 4250 2034 4250 
z
M 2034 4750 
Q 2819 4750 3233 4129 
Q 3647 3509 3647 2328 
Q 3647 1150 3233 529 
Q 2819 -91 2034 -91 
Q 1250 -91 836 529 
Q 422 1150 422 2328 
Q 422 3509 836 4129 
Q 1250 4750 2034 4750 
z
" transform="scale(0.015625)"/>
       </defs>
       <use xlink:href="#DejaVuSans-32"/>
       <use xlink:href="#DejaVuSans-30" x="63.623047"/>
       <use xlink:href="#DejaVuSans-30" x="127.246094"/>
      </g>
     </g>
    </g>
    <g id="xtick_2">
     <g id="line2d_3">
      <path d="M 177.500169 176.204281 
L 177.500169 9.884281 
" clip-path="url(#pf763ae6a0d)" style="fill: none; stroke: #b0b0b0; stroke-width: 0.8; stroke-linecap: square"/>
     </g>
     <g id="line2d_4">
      <g>
       <use xlink:href="#m50c5ff60f7" x="177.500169" y="176.204281" style="stroke: #000000; stroke-width: 0.8"/>
      </g>
     </g>
     <g id="text_2">
      <!-- 400 -->
      <g transform="translate(167.956419 190.802718)scale(0.1 -0.1)">
       <defs>
        <path id="DejaVuSans-34" d="M 2419 4116 
L 825 1625 
L 2419 1625 
L 2419 4116 
z
M 2253 4666 
L 3047 4666 
L 3047 1625 
L 3713 1625 
L 3713 1100 
L 3047 1100 
L 3047 0 
L 2419 0 
L 2419 1100 
L 313 1100 
L 313 1709 
L 2253 4666 
z
" transform="scale(0.015625)"/>
       </defs>
       <use xlink:href="#DejaVuSans-34"/>
       <use xlink:href="#DejaVuSans-30" x="63.623047"/>
       <use xlink:href="#DejaVuSans-30" x="127.246094"/>
      </g>
     </g>
    </g>
    <g id="xtick_3">
     <g id="line2d_5">
      <path d="M 244.527196 176.204281 
L 244.527196 9.884281 
" clip-path="url(#pf763ae6a0d)" style="fill: none; stroke: #b0b0b0; stroke-width: 0.8; stroke-linecap: square"/>
     </g>
     <g id="line2d_6">
      <g>
       <use xlink:href="#m50c5ff60f7" x="244.527196" y="176.204281" style="stroke: #000000; stroke-width: 0.8"/>
      </g>
     </g>
     <g id="text_3">
      <!-- 600 -->
      <g transform="translate(234.983446 190.802718)scale(0.1 -0.1)">
       <defs>
        <path id="DejaVuSans-36" d="M 2113 2584 
Q 1688 2584 1439 2293 
Q 1191 2003 1191 1497 
Q 1191 994 1439 701 
Q 1688 409 2113 409 
Q 2538 409 2786 701 
Q 3034 994 3034 1497 
Q 3034 2003 2786 2293 
Q 2538 2584 2113 2584 
z
M 3366 4563 
L 3366 3988 
Q 3128 4100 2886 4159 
Q 2644 4219 2406 4219 
Q 1781 4219 1451 3797 
Q 1122 3375 1075 2522 
Q 1259 2794 1537 2939 
Q 1816 3084 2150 3084 
Q 2853 3084 3261 2657 
Q 3669 2231 3669 1497 
Q 3669 778 3244 343 
Q 2819 -91 2113 -91 
Q 1303 -91 875 529 
Q 447 1150 447 2328 
Q 447 3434 972 4092 
Q 1497 4750 2381 4750 
Q 2619 4750 2861 4703 
Q 3103 4656 3366 4563 
z
" transform="scale(0.015625)"/>
       </defs>
       <use xlink:href="#DejaVuSans-36"/>
       <use xlink:href="#DejaVuSans-30" x="63.623047"/>
       <use xlink:href="#DejaVuSans-30" x="127.246094"/>
      </g>
     </g>
    </g>
    <g id="xtick_4">
     <g id="line2d_7">
      <path d="M 311.554223 176.204281 
L 311.554223 9.884281 
" clip-path="url(#pf763ae6a0d)" style="fill: none; stroke: #b0b0b0; stroke-width: 0.8; stroke-linecap: square"/>
     </g>
     <g id="line2d_8">
      <g>
       <use xlink:href="#m50c5ff60f7" x="311.554223" y="176.204281" style="stroke: #000000; stroke-width: 0.8"/>
      </g>
     </g>
     <g id="text_4">
      <!-- 800 -->
      <g transform="translate(302.010473 190.802718)scale(0.1 -0.1)">
       <defs>
        <path id="DejaVuSans-38" d="M 2034 2216 
Q 1584 2216 1326 1975 
Q 1069 1734 1069 1313 
Q 1069 891 1326 650 
Q 1584 409 2034 409 
Q 2484 409 2743 651 
Q 3003 894 3003 1313 
Q 3003 1734 2745 1975 
Q 2488 2216 2034 2216 
z
M 1403 2484 
Q 997 2584 770 2862 
Q 544 3141 544 3541 
Q 544 4100 942 4425 
Q 1341 4750 2034 4750 
Q 2731 4750 3128 4425 
Q 3525 4100 3525 3541 
Q 3525 3141 3298 2862 
Q 3072 2584 2669 2484 
Q 3125 2378 3379 2068 
Q 3634 1759 3634 1313 
Q 3634 634 3220 271 
Q 2806 -91 2034 -91 
Q 1263 -91 848 271 
Q 434 634 434 1313 
Q 434 1759 690 2068 
Q 947 2378 1403 2484 
z
M 1172 3481 
Q 1172 3119 1398 2916 
Q 1625 2713 2034 2713 
Q 2441 2713 2670 2916 
Q 2900 3119 2900 3481 
Q 2900 3844 2670 4047 
Q 2441 4250 2034 4250 
Q 1625 4250 1398 4047 
Q 1172 3844 1172 3481 
z
" transform="scale(0.015625)"/>
       </defs>
       <use xlink:href="#DejaVuSans-38"/>
       <use xlink:href="#DejaVuSans-30" x="63.623047"/>
       <use xlink:href="#DejaVuSans-30" x="127.246094"/>
      </g>
     </g>
    </g>
    <g id="xtick_5">
     <g id="line2d_9">
      <path d="M 378.58125 176.204281 
L 378.58125 9.884281 
" clip-path="url(#pf763ae6a0d)" style="fill: none; stroke: #b0b0b0; stroke-width: 0.8; stroke-linecap: square"/>
     </g>
     <g id="line2d_10">
      <g>
       <use xlink:href="#m50c5ff60f7" x="378.58125" y="176.204281" style="stroke: #000000; stroke-width: 0.8"/>
      </g>
     </g>
     <g id="text_5">
      <!-- 1000 -->
      <g transform="translate(365.85625 190.802718)scale(0.1 -0.1)">
       <defs>
        <path id="DejaVuSans-31" d="M 794 531 
L 1825 531 
L 1825 4091 
L 703 3866 
L 703 4441 
L 1819 4666 
L 2450 4666 
L 2450 531 
L 3481 531 
L 3481 0 
L 794 0 
L 794 531 
z
" transform="scale(0.015625)"/>
       </defs>
       <use xlink:href="#DejaVuSans-31"/>
       <use xlink:href="#DejaVuSans-30" x="63.623047"/>
       <use xlink:href="#DejaVuSans-30" x="127.246094"/>
       <use xlink:href="#DejaVuSans-30" x="190.869141"/>
      </g>
     </g>
    </g>
    <g id="text_6">
     <!-- time -->
     <g transform="translate(199.885156 204.480843)scale(0.1 -0.1)">
      <defs>
       <path id="DejaVuSans-74" d="M 1172 4494 
L 1172 3500 
L 2356 3500 
L 2356 3053 
L 1172 3053 
L 1172 1153 
Q 1172 725 1289 603 
Q 1406 481 1766 481 
L 2356 481 
L 2356 0 
L 1766 0 
Q 1100 0 847 248 
Q 594 497 594 1153 
L 594 3053 
L 172 3053 
L 172 3500 
L 594 3500 
L 594 4494 
L 1172 4494 
z
" transform="scale(0.015625)"/>
       <path id="DejaVuSans-69" d="M 603 3500 
L 1178 3500 
L 1178 0 
L 603 0 
L 603 3500 
z
M 603 4863 
L 1178 4863 
L 1178 4134 
L 603 4134 
L 603 4863 
z
" transform="scale(0.015625)"/>
       <path id="DejaVuSans-6d" d="M 3328 2828 
Q 3544 3216 3844 3400 
Q 4144 3584 4550 3584 
Q 5097 3584 5394 3201 
Q 5691 2819 5691 2113 
L 5691 0 
L 5113 0 
L 5113 2094 
Q 5113 2597 4934 2840 
Q 4756 3084 4391 3084 
Q 3944 3084 3684 2787 
Q 3425 2491 3425 1978 
L 3425 0 
L 2847 0 
L 2847 2094 
Q 2847 2600 2669 2842 
Q 2491 3084 2119 3084 
Q 1678 3084 1418 2786 
Q 1159 2488 1159 1978 
L 1159 0 
L 581 0 
L 581 3500 
L 1159 3500 
L 1159 2956 
Q 1356 3278 1631 3431 
Q 1906 3584 2284 3584 
Q 2666 3584 2933 3390 
Q 3200 3197 3328 2828 
z
" transform="scale(0.015625)"/>
       <path id="DejaVuSans-65" d="M 3597 1894 
L 3597 1613 
L 953 1613 
Q 991 1019 1311 708 
Q 1631 397 2203 397 
Q 2534 397 2845 478 
Q 3156 559 3463 722 
L 3463 178 
Q 3153 47 2828 -22 
Q 2503 -91 2169 -91 
Q 1331 -91 842 396 
Q 353 884 353 1716 
Q 353 2575 817 3079 
Q 1281 3584 2069 3584 
Q 2775 3584 3186 3129 
Q 3597 2675 3597 1894 
z
M 3022 2063 
Q 3016 2534 2758 2815 
Q 2500 3097 2075 3097 
Q 1594 3097 1305 2825 
Q 1016 2553 972 2059 
L 3022 2063 
z
" transform="scale(0.015625)"/>
      </defs>
      <use xlink:href="#DejaVuSans-74"/>
      <use xlink:href="#DejaVuSans-69" x="39.208984"/>
      <use xlink:href="#DejaVuSans-6d" x="66.992188"/>
      <use xlink:href="#DejaVuSans-65" x="164.404297"/>
     </g>
    </g>
   </g>
   <g id="matplotlib.axis_2">
    <g id="ytick_1">
     <g id="line2d_11">
      <path d="M 43.78125 168.699551 
L 378.58125 168.699551 
" clip-path="url(#pf763ae6a0d)" style="fill: none; stroke: #b0b0b0; stroke-width: 0.8; stroke-linecap: square"/>
     </g>
     <g id="line2d_12">
      <defs>
       <path id="m6499da8622" d="M 0 0 
L -3.5 0 
" style="stroke: #000000; stroke-width: 0.8"/>
      </defs>
      <g>
       <use xlink:href="#m6499da8622" x="43.78125" y="168.699551" style="stroke: #000000; stroke-width: 0.8"/>
      </g>
     </g>
     <g id="text_7">
      <!-- 1.5 -->
      <g transform="translate(20.878125 172.49877)scale(0.1 -0.1)">
       <defs>
        <path id="DejaVuSans-2e" d="M 684 794 
L 1344 794 
L 1344 0 
L 684 0 
L 684 794 
z
" transform="scale(0.015625)"/>
        <path id="DejaVuSans-35" d="M 691 4666 
L 3169 4666 
L 3169 4134 
L 1269 4134 
L 1269 2991 
Q 1406 3038 1543 3061 
Q 1681 3084 1819 3084 
Q 2600 3084 3056 2656 
Q 3513 2228 3513 1497 
Q 3513 744 3044 326 
Q 2575 -91 1722 -91 
Q 1428 -91 1123 -41 
Q 819 9 494 109 
L 494 744 
Q 775 591 1075 516 
Q 1375 441 1709 441 
Q 2250 441 2565 725 
Q 2881 1009 2881 1497 
Q 2881 1984 2565 2268 
Q 2250 2553 1709 2553 
Q 1456 2553 1204 2497 
Q 953 2441 691 2322 
L 691 4666 
z
" transform="scale(0.015625)"/>
       </defs>
       <use xlink:href="#DejaVuSans-31"/>
       <use xlink:href="#DejaVuSans-2e" x="63.623047"/>
       <use xlink:href="#DejaVuSans-35" x="95.410156"/>
      </g>
     </g>
    </g>
    <g id="ytick_2">
     <g id="line2d_13">
      <path d="M 43.78125 137.159484 
L 378.58125 137.159484 
" clip-path="url(#pf763ae6a0d)" style="fill: none; stroke: #b0b0b0; stroke-width: 0.8; stroke-linecap: square"/>
     </g>
     <g id="line2d_14">
      <g>
       <use xlink:href="#m6499da8622" x="43.78125" y="137.159484" style="stroke: #000000; stroke-width: 0.8"/>
      </g>
     </g>
     <g id="text_8">
      <!-- 2.0 -->
      <g transform="translate(20.878125 140.958703)scale(0.1 -0.1)">
       <use xlink:href="#DejaVuSans-32"/>
       <use xlink:href="#DejaVuSans-2e" x="63.623047"/>
       <use xlink:href="#DejaVuSans-30" x="95.410156"/>
      </g>
     </g>
    </g>
    <g id="ytick_3">
     <g id="line2d_15">
      <path d="M 43.78125 105.619418 
L 378.58125 105.619418 
" clip-path="url(#pf763ae6a0d)" style="fill: none; stroke: #b0b0b0; stroke-width: 0.8; stroke-linecap: square"/>
     </g>
     <g id="line2d_16">
      <g>
       <use xlink:href="#m6499da8622" x="43.78125" y="105.619418" style="stroke: #000000; stroke-width: 0.8"/>
      </g>
     </g>
     <g id="text_9">
      <!-- 2.5 -->
      <g transform="translate(20.878125 109.418637)scale(0.1 -0.1)">
       <use xlink:href="#DejaVuSans-32"/>
       <use xlink:href="#DejaVuSans-2e" x="63.623047"/>
       <use xlink:href="#DejaVuSans-35" x="95.410156"/>
      </g>
     </g>
    </g>
    <g id="ytick_4">
     <g id="line2d_17">
      <path d="M 43.78125 74.079352 
L 378.58125 74.079352 
" clip-path="url(#pf763ae6a0d)" style="fill: none; stroke: #b0b0b0; stroke-width: 0.8; stroke-linecap: square"/>
     </g>
     <g id="line2d_18">
      <g>
       <use xlink:href="#m6499da8622" x="43.78125" y="74.079352" style="stroke: #000000; stroke-width: 0.8"/>
      </g>
     </g>
     <g id="text_10">
      <!-- 3.0 -->
      <g transform="translate(20.878125 77.87857)scale(0.1 -0.1)">
       <defs>
        <path id="DejaVuSans-33" d="M 2597 2516 
Q 3050 2419 3304 2112 
Q 3559 1806 3559 1356 
Q 3559 666 3084 287 
Q 2609 -91 1734 -91 
Q 1441 -91 1130 -33 
Q 819 25 488 141 
L 488 750 
Q 750 597 1062 519 
Q 1375 441 1716 441 
Q 2309 441 2620 675 
Q 2931 909 2931 1356 
Q 2931 1769 2642 2001 
Q 2353 2234 1838 2234 
L 1294 2234 
L 1294 2753 
L 1863 2753 
Q 2328 2753 2575 2939 
Q 2822 3125 2822 3475 
Q 2822 3834 2567 4026 
Q 2313 4219 1838 4219 
Q 1578 4219 1281 4162 
Q 984 4106 628 3988 
L 628 4550 
Q 988 4650 1302 4700 
Q 1616 4750 1894 4750 
Q 2613 4750 3031 4423 
Q 3450 4097 3450 3541 
Q 3450 3153 3228 2886 
Q 3006 2619 2597 2516 
z
" transform="scale(0.015625)"/>
       </defs>
       <use xlink:href="#DejaVuSans-33"/>
       <use xlink:href="#DejaVuSans-2e" x="63.623047"/>
       <use xlink:href="#DejaVuSans-30" x="95.410156"/>
      </g>
     </g>
    </g>
    <g id="ytick_5">
     <g id="line2d_19">
      <path d="M 43.78125 42.539285 
L 378.58125 42.539285 
" clip-path="url(#pf763ae6a0d)" style="fill: none; stroke: #b0b0b0; stroke-width: 0.8; stroke-linecap: square"/>
     </g>
     <g id="line2d_20">
      <g>
       <use xlink:href="#m6499da8622" x="43.78125" y="42.539285" style="stroke: #000000; stroke-width: 0.8"/>
      </g>
     </g>
     <g id="text_11">
      <!-- 3.5 -->
      <g transform="translate(20.878125 46.338504)scale(0.1 -0.1)">
       <use xlink:href="#DejaVuSans-33"/>
       <use xlink:href="#DejaVuSans-2e" x="63.623047"/>
       <use xlink:href="#DejaVuSans-35" x="95.410156"/>
      </g>
     </g>
    </g>
    <g id="ytick_6">
     <g id="line2d_21">
      <path d="M 43.78125 10.999219 
L 378.58125 10.999219 
" clip-path="url(#pf763ae6a0d)" style="fill: none; stroke: #b0b0b0; stroke-width: 0.8; stroke-linecap: square"/>
     </g>
     <g id="line2d_22">
      <g>
       <use xlink:href="#m6499da8622" x="43.78125" y="10.999219" style="stroke: #000000; stroke-width: 0.8"/>
      </g>
     </g>
     <g id="text_12">
      <!-- 4.0 -->
      <g transform="translate(20.878125 14.798437)scale(0.1 -0.1)">
       <use xlink:href="#DejaVuSans-34"/>
       <use xlink:href="#DejaVuSans-2e" x="63.623047"/>
       <use xlink:href="#DejaVuSans-30" x="95.410156"/>
      </g>
     </g>
    </g>
    <g id="text_13">
     <!-- S -->
     <g transform="translate(14.798438 96.2185)rotate(-90)scale(0.1 -0.1)">
      <defs>
       <path id="DejaVuSans-53" d="M 3425 4513 
L 3425 3897 
Q 3066 4069 2747 4153 
Q 2428 4238 2131 4238 
Q 1616 4238 1336 4038 
Q 1056 3838 1056 3469 
Q 1056 3159 1242 3001 
Q 1428 2844 1947 2747 
L 2328 2669 
Q 3034 2534 3370 2195 
Q 3706 1856 3706 1288 
Q 3706 609 3251 259 
Q 2797 -91 1919 -91 
Q 1588 -91 1214 -16 
Q 841 59 441 206 
L 441 856 
Q 825 641 1194 531 
Q 1563 422 1919 422 
Q 2459 422 2753 634 
Q 3047 847 3047 1241 
Q 3047 1584 2836 1778 
Q 2625 1972 2144 2069 
L 1759 2144 
Q 1053 2284 737 2584 
Q 422 2884 422 3419 
Q 422 4038 858 4394 
Q 1294 4750 2059 4750 
Q 2388 4750 2728 4690 
Q 3069 4631 3425 4513 
z
" transform="scale(0.015625)"/>
      </defs>
      <use xlink:href="#DejaVuSans-53"/>
     </g>
    </g>
   </g>
   <g id="line2d_23">
    <path d="M 43.78125 97.823405 
L 44.116385 100.185445 
L 44.786655 89.659993 
L 45.121791 90.003915 
L 45.456926 88.31611 
L 45.792061 85.036362 
L 46.127196 79.357305 
L 46.462331 80.941127 
L 46.797466 84.236231 
L 47.132601 85.115108 
L 47.467736 77.318749 
L 47.802872 81.371001 
L 48.138007 73.763387 
L 48.473142 75.12258 
L 48.808277 82.239169 
L 49.143412 99.644159 
L 49.478547 77.701489 
L 49.813682 73.970451 
L 50.148818 83.849221 
L 50.483953 72.421189 
L 50.819088 81.504657 
L 51.154223 81.234653 
L 51.489358 73.635161 
L 51.824493 70.36973 
L 52.159628 94.81187 
L 52.494764 65.524868 
L 52.829899 81.434287 
L 53.165034 81.842939 
L 53.500169 68.439804 
L 53.835304 78.485016 
L 54.170439 75.562951 
L 54.505574 64.462554 
L 54.840709 75.082815 
L 55.175845 67.815199 
L 55.51098 73.278454 
L 55.846115 64.667933 
L 56.18125 61.737356 
L 56.85152 70.776337 
L 57.186655 61.930463 
L 57.521791 74.371599 
L 57.856926 61.105774 
L 58.192061 67.708825 
L 58.527196 54.60487 
L 58.862331 78.414495 
L 59.197466 63.977832 
L 59.532601 54.833244 
L 59.867736 79.20673 
L 60.202872 64.804973 
L 60.538007 68.994655 
L 60.873142 56.014309 
L 61.208277 56.510958 
L 61.543412 59.405516 
L 61.878547 45.074971 
L 62.213682 58.137056 
L 62.548818 57.578174 
L 62.883953 57.93258 
L 63.219088 56.885727 
L 63.554223 57.56503 
L 63.889358 58.553695 
L 64.224493 53.886795 
L 64.559628 59.524027 
L 64.894764 60.749548 
L 65.229899 54.655342 
L 65.565034 51.64474 
L 66.235304 57.349875 
L 66.570439 47.557808 
L 66.905574 56.725421 
L 67.240709 52.537333 
L 67.575845 55.282534 
L 67.91098 53.68095 
L 68.246115 57.762498 
L 68.58125 56.242699 
L 68.916385 39.991899 
L 69.25152 41.767565 
L 69.921791 52.848455 
L 70.256926 50.759863 
L 70.592061 45.283553 
L 70.927196 45.580628 
L 71.262331 49.676554 
L 71.597466 55.564795 
L 71.932601 43.018533 
L 72.267736 39.573516 
L 72.602872 34.169291 
L 72.938007 46.066147 
L 73.273142 48.3529 
L 73.608277 35.71398 
L 73.943412 52.479657 
L 74.278547 34.164974 
L 74.613682 41.908123 
L 74.948818 44.817691 
L 75.283953 35.028541 
L 75.619088 36.055617 
L 76.289358 42.64011 
L 76.959628 33.310837 
L 77.294764 37.02834 
L 77.629899 35.38639 
L 77.965034 37.032987 
L 78.300169 40.624414 
L 78.970439 42.886787 
L 79.305574 38.007921 
L 79.640709 36.64727 
L 79.975845 32.876512 
L 80.31098 41.041068 
L 80.98125 20.450341 
L 81.316385 37.622625 
L 81.65152 33.081876 
L 81.986655 36.911814 
L 82.321791 27.645632 
L 82.656926 38.481138 
L 82.992061 24.753255 
L 83.327196 39.058714 
L 83.662331 27.241191 
L 83.997466 34.285786 
L 84.332601 37.657231 
L 84.667736 38.871774 
L 85.002872 32.016811 
L 85.338007 37.227568 
L 85.673142 27.24847 
L 86.008277 30.765165 
L 86.343412 27.649317 
L 86.678547 28.655894 
L 87.013682 23.510183 
L 87.348818 26.195496 
L 87.683953 45.176472 
L 88.354223 20.701621 
L 88.689358 30.447441 
L 89.024493 33.584646 
L 89.359628 28.73992 
L 89.694764 29.365216 
L 90.029899 17.444281 
L 90.365034 31.210349 
L 90.700169 23.113787 
L 91.035304 29.162499 
L 91.370439 30.801471 
L 91.705574 25.671882 
L 92.040709 31.804288 
L 92.375845 23.855369 
L 92.71098 28.21832 
L 93.046115 28.889758 
L 93.38125 27.165392 
L 94.05152 18.80045 
L 94.386655 18.717342 
L 94.721791 28.555686 
L 95.056926 29.482524 
L 95.392061 32.168108 
L 95.727196 38.15994 
L 96.062331 25.433295 
L 96.397466 26.518288 
L 96.732601 29.844734 
L 97.067736 29.16665 
L 97.402872 26.078068 
L 97.738007 18.973961 
L 98.073142 25.299564 
L 98.408277 27.679952 
L 98.743412 32.309554 
L 99.078547 40.867241 
L 99.413682 20.260708 
L 99.748818 23.773298 
L 100.083953 20.473773 
L 100.419088 22.367468 
L 100.754223 39.884231 
L 101.089358 47.014582 
L 101.424493 31.004443 
L 101.759628 32.629158 
L 102.094764 24.653664 
L 102.429899 33.627734 
L 102.765034 20.771419 
L 103.100169 38.227287 
L 103.435304 26.699183 
L 104.105574 17.688251 
L 104.440709 25.179038 
L 105.11098 33.535948 
L 105.446115 34.579628 
L 105.78125 34.576063 
L 106.116385 38.71983 
L 106.45152 25.04666 
L 106.786655 22.133695 
L 107.121791 28.707239 
L 107.456926 25.298662 
L 107.792061 18.71841 
L 108.127196 40.535771 
L 108.462331 23.178457 
L 108.797466 25.266718 
L 109.467736 40.996415 
L 109.802872 40.287409 
L 110.138007 35.203435 
L 110.473142 46.018172 
L 110.808277 42.128106 
L 111.143412 23.694251 
L 111.478547 43.036641 
L 111.813682 33.989749 
L 112.148818 35.000598 
L 112.483953 38.324051 
L 112.819088 28.486023 
L 113.154223 32.629399 
L 113.489358 41.51624 
L 113.824493 41.932924 
L 114.494764 31.248715 
L 114.829899 29.589876 
L 115.165034 36.004994 
L 115.500169 57.996031 
L 115.835304 40.239855 
L 116.170439 53.530239 
L 116.505574 32.930128 
L 116.840709 36.621161 
L 117.175845 41.957152 
L 117.51098 49.107581 
L 118.18125 38.115228 
L 118.516385 36.424039 
L 118.85152 33.460766 
L 119.186655 52.472092 
L 119.856926 35.865322 
L 120.192061 40.713643 
L 120.527196 41.820895 
L 120.862331 36.081515 
L 121.197466 54.828326 
L 121.532601 59.503633 
L 122.202872 54.197526 
L 122.538007 42.871627 
L 122.873142 47.178557 
L 123.208277 47.765172 
L 123.878547 43.294101 
L 124.213682 47.937735 
L 124.548818 45.373926 
L 124.883953 51.836493 
L 125.219088 51.758168 
L 125.554223 50.23315 
L 125.889358 52.695654 
L 126.224493 56.66597 
L 126.559628 47.730837 
L 126.894764 56.406028 
L 127.229899 53.108382 
L 127.565034 58.005401 
L 128.235304 39.624033 
L 128.570439 62.783036 
L 128.905574 51.41993 
L 129.240709 53.695538 
L 129.575845 60.410318 
L 129.91098 55.588211 
L 130.246115 57.434171 
L 130.58125 41.915658 
L 130.916385 63.655882 
L 131.25152 48.735654 
L 131.586655 64.11024 
L 131.921791 67.408186 
L 132.256926 59.014279 
L 132.592061 60.613622 
L 132.927196 68.225236 
L 133.597466 62.52365 
L 133.932601 57.899297 
L 134.602872 74.048476 
L 134.938007 66.033984 
L 135.273142 73.905601 
L 135.608277 73.824132 
L 135.943412 68.289936 
L 136.278547 73.760996 
L 136.613682 69.993607 
L 136.948818 73.523447 
L 137.283953 80.055468 
L 137.619088 56.621107 
L 137.954223 71.240651 
L 138.289358 77.706106 
L 138.624493 74.906192 
L 138.959628 78.315837 
L 139.294764 68.776102 
L 139.629899 71.136141 
L 140.300169 86.135672 
L 140.635304 85.849711 
L 140.970439 79.84854 
L 141.305574 68.874069 
L 141.640709 67.760847 
L 141.975845 77.514353 
L 142.31098 83.94412 
L 142.646115 87.421171 
L 142.98125 84.454183 
L 143.316385 86.728979 
L 143.65152 82.169221 
L 143.986655 73.200655 
L 144.321791 80.409422 
L 144.656926 90.170508 
L 144.992061 89.996802 
L 145.327196 104.577333 
L 145.662331 84.416555 
L 145.997466 80.440899 
L 146.332601 81.878463 
L 146.667736 88.696534 
L 147.002872 81.127677 
L 147.673142 98.131744 
L 148.008277 92.461471 
L 148.343412 94.445539 
L 148.678547 91.442201 
L 149.013682 98.005789 
L 149.348818 100.099509 
L 149.683953 110.604252 
L 150.019088 99.279422 
L 150.354223 92.916505 
L 151.024493 106.323882 
L 151.359628 97.63675 
L 151.694764 107.291973 
L 152.029899 92.76951 
L 152.365034 101.931152 
L 152.700169 98.347922 
L 153.035304 86.836812 
L 153.370439 99.430629 
L 153.705574 93.957733 
L 154.040709 106.417067 
L 154.375845 111.446343 
L 154.71098 105.070823 
L 155.046115 111.497056 
L 155.38125 97.937299 
L 155.716385 106.868236 
L 156.05152 107.333512 
L 156.386655 99.391616 
L 157.056926 111.54649 
L 157.392061 98.382633 
L 157.727196 113.504224 
L 158.062331 111.314251 
L 158.397466 110.261412 
L 158.732601 110.730042 
L 159.067736 100.462938 
L 159.402872 102.665274 
L 159.738007 120.168411 
L 160.073142 109.865408 
L 160.408277 111.127686 
L 160.743412 115.402116 
L 161.078547 117.110856 
L 161.413682 122.908348 
L 161.748818 114.461787 
L 162.083953 109.291005 
L 162.754223 121.154113 
L 163.089358 132.967727 
L 163.424493 130.192222 
L 163.759628 105.659318 
L 164.094764 123.18142 
L 164.429899 119.193943 
L 164.765034 130.280052 
L 165.100169 129.049673 
L 165.435304 118.946364 
L 165.770439 126.171117 
L 166.105574 120.20234 
L 166.440709 120.845037 
L 166.775845 124.030639 
L 167.11098 124.579715 
L 167.446115 126.42951 
L 167.78125 118.3887 
L 168.116385 122.879638 
L 168.45152 124.190117 
L 168.786655 120.183436 
L 169.121791 134.771411 
L 169.456926 130.891392 
L 169.792061 125.289593 
L 170.127196 137.777268 
L 170.462331 133.689592 
L 170.797466 137.030837 
L 171.132601 134.31012 
L 171.467736 126.889673 
L 171.802872 136.667017 
L 172.138007 129.789043 
L 172.473142 133.260124 
L 172.808277 130.870126 
L 173.143412 131.842699 
L 173.478547 137.651508 
L 173.813682 147.530842 
L 174.148818 144.778926 
L 174.483953 127.027736 
L 174.819088 140.116982 
L 175.154223 145.231367 
L 175.489358 142.859401 
L 175.824493 137.799377 
L 176.159628 130.456886 
L 176.494764 145.977512 
L 176.829899 129.668412 
L 177.165034 134.055998 
L 177.500169 142.308392 
L 178.170439 130.501674 
L 178.505574 129.523642 
L 178.840709 139.926402 
L 179.175845 137.290967 
L 179.51098 147.66631 
L 179.846115 140.237967 
L 180.18125 139.466653 
L 180.516385 141.478483 
L 180.85152 137.697108 
L 181.186655 150.040261 
L 181.521791 152.516737 
L 181.856926 131.678317 
L 182.192061 148.433948 
L 182.527196 149.166325 
L 182.862331 140.14191 
L 183.197466 143.38012 
L 183.532601 135.922563 
L 183.867736 156.8413 
L 184.202872 147.435665 
L 184.538007 141.575345 
L 184.873142 157.655853 
L 185.208277 144.432394 
L 185.543412 152.276684 
L 185.878547 146.752482 
L 186.213682 147.439116 
L 186.548818 149.804217 
L 186.883953 149.20266 
L 187.219088 141.833182 
L 187.889358 159.300443 
L 188.224493 156.267905 
L 188.894764 143.201413 
L 189.229899 153.079973 
L 189.565034 155.49641 
L 189.900169 142.34472 
L 190.235304 154.874904 
L 190.570439 146.586062 
L 190.905574 144.24398 
L 191.240709 150.793168 
L 191.575845 148.934943 
L 191.91098 157.024917 
L 192.246115 148.041688 
L 192.58125 154.362614 
L 192.916385 156.242376 
L 193.25152 148.716306 
L 193.586655 154.028798 
L 193.921791 150.331305 
L 194.256926 155.967379 
L 194.592061 149.629872 
L 194.927196 150.471706 
L 195.262331 154.007562 
L 195.597466 162.072985 
L 195.932601 141.865878 
L 196.267736 168.644281 
L 196.602872 149.970997 
L 196.938007 151.122525 
L 197.273142 162.273912 
L 197.608277 162.743806 
L 197.943412 147.523315 
L 198.278547 154.624346 
L 198.613682 149.77883 
L 198.948818 163.510345 
L 199.283953 156.957879 
L 199.619088 156.954104 
L 199.954223 148.647997 
L 200.289358 147.997419 
L 200.959628 158.34815 
L 201.294764 159.773772 
L 201.629899 162.839367 
L 201.965034 154.139549 
L 202.300169 160.53568 
L 202.970439 151.122683 
L 203.305574 153.582268 
L 203.640709 153.073468 
L 204.31098 164.785798 
L 204.646115 163.845771 
L 204.98125 144.212066 
L 205.316385 160.169341 
L 205.65152 154.99055 
L 205.986655 152.300334 
L 206.656926 139.203439 
L 206.992061 156.41721 
L 207.327196 148.526486 
L 207.662331 165.491947 
L 207.997466 155.607913 
L 208.332601 153.727903 
L 208.667736 149.467821 
L 209.002872 158.441719 
L 209.338007 160.761159 
L 209.673142 155.590061 
L 210.008277 163.374975 
L 210.678547 146.195795 
L 211.013682 152.709377 
L 211.348818 153.156508 
L 211.683953 157.871023 
L 212.019088 149.197945 
L 212.689358 156.254851 
L 213.359628 148.413479 
L 213.694764 141.019712 
L 214.029899 151.778396 
L 214.365034 154.193638 
L 214.700169 142.897105 
L 215.035304 156.610001 
L 215.370439 142.486963 
L 215.705574 151.623384 
L 216.040709 150.721926 
L 216.375845 151.589485 
L 216.71098 153.895511 
L 217.046115 149.388849 
L 217.38125 160.636091 
L 217.716385 147.983718 
L 218.05152 141.719032 
L 218.386655 144.354903 
L 218.721791 151.107057 
L 219.056926 129.71529 
L 219.392061 144.525549 
L 219.727196 143.178222 
L 220.062331 139.652676 
L 220.397466 148.202971 
L 220.732601 147.103781 
L 221.067736 139.267823 
L 221.402872 140.740271 
L 221.738007 137.914812 
L 222.073142 148.614835 
L 222.743412 138.968222 
L 223.078547 141.38293 
L 223.413682 138.657777 
L 223.748818 142.423361 
L 224.083953 127.308147 
L 224.419088 133.344541 
L 224.754223 147.456284 
L 225.089358 145.962984 
L 225.424493 138.227971 
L 225.759628 143.511836 
L 226.094764 141.312222 
L 226.429899 124.14333 
L 226.765034 126.034423 
L 227.435304 149.226009 
L 227.770439 132.267459 
L 228.105574 135.096038 
L 228.440709 148.373324 
L 228.775845 136.641585 
L 229.11098 138.448277 
L 229.446115 137.742219 
L 229.78125 126.654095 
L 230.116385 120.297269 
L 230.45152 132.918638 
L 230.786655 128.789791 
L 231.121791 140.033618 
L 231.456926 126.96081 
L 231.792061 120.311181 
L 232.462331 126.787766 
L 232.797466 132.728178 
L 233.132601 123.147912 
L 233.467736 134.501979 
L 233.802872 130.304537 
L 234.138007 131.14404 
L 234.473142 136.161194 
L 234.808277 116.433297 
L 235.143412 132.476853 
L 235.813682 112.257918 
L 236.148818 126.937469 
L 236.483953 125.511636 
L 236.819088 129.708537 
L 237.154223 125.609333 
L 237.489358 123.644891 
L 237.824493 117.566612 
L 238.494764 120.757432 
L 238.829899 120.967489 
L 239.165034 108.96513 
L 239.500169 122.048586 
L 239.835304 111.559785 
L 240.170439 107.006509 
L 240.505574 126.948643 
L 240.840709 108.356317 
L 241.175845 115.132458 
L 241.51098 114.910069 
L 241.846115 113.548906 
L 242.18125 117.766231 
L 242.516385 111.8816 
L 242.85152 102.3742 
L 243.186655 109.017888 
L 243.521791 99.591416 
L 243.856926 101.005563 
L 244.192061 106.815688 
L 244.527196 105.782446 
L 244.862331 104.341273 
L 245.197466 119.252658 
L 245.532601 101.83141 
L 245.867736 105.707685 
L 246.202872 101.988317 
L 246.538007 109.953374 
L 246.873142 105.345745 
L 247.208277 106.853888 
L 247.543412 109.420164 
L 247.878547 95.856467 
L 248.213682 114.231097 
L 248.548818 104.066472 
L 248.883953 111.328839 
L 249.554223 101.830568 
L 249.889358 105.569021 
L 250.224493 105.270457 
L 250.559628 99.043242 
L 250.894764 102.059484 
L 251.229899 95.383927 
L 251.565034 101.086054 
L 251.900169 104.097513 
L 252.235304 90.599163 
L 252.570439 92.62301 
L 252.905574 81.640343 
L 253.240709 81.661834 
L 253.575845 88.413055 
L 253.91098 85.924713 
L 254.246115 89.148094 
L 254.58125 87.309548 
L 254.916385 97.268178 
L 255.25152 96.101505 
L 255.921791 88.782695 
L 256.256926 77.48265 
L 256.592061 83.606077 
L 256.927196 84.127255 
L 257.262331 84.882057 
L 257.597466 79.522454 
L 257.932601 85.400031 
L 258.267736 70.579996 
L 258.602872 93.121915 
L 258.938007 83.558598 
L 259.273142 82.513535 
L 259.608277 96.797171 
L 260.278547 77.765948 
L 260.613682 80.482709 
L 260.948818 84.354487 
L 261.283953 81.451672 
L 261.619088 90.32361 
L 261.954223 82.448624 
L 262.289358 77.447232 
L 262.624493 81.12488 
L 262.959628 68.734232 
L 263.294764 62.800316 
L 263.629899 72.751787 
L 263.965034 71.407288 
L 264.300169 76.963397 
L 264.635304 66.036992 
L 264.970439 76.989039 
L 265.305574 76.738541 
L 265.640709 78.859333 
L 265.975845 69.95261 
L 266.31098 72.093073 
L 266.646115 72.625861 
L 266.98125 63.812518 
L 267.316385 64.491009 
L 267.65152 61.695005 
L 267.986655 61.170669 
L 268.321791 57.828807 
L 268.656926 76.199903 
L 268.992061 60.142886 
L 269.327196 73.647568 
L 269.662331 61.031809 
L 269.997466 55.245386 
L 270.332601 75.417399 
L 270.667736 67.190956 
L 271.002872 51.108628 
L 271.338007 57.508015 
L 271.673142 58.529346 
L 272.008277 63.41889 
L 272.343412 53.319205 
L 272.678547 58.47376 
L 273.013682 66.168933 
L 273.348818 63.767806 
L 273.683953 53.592879 
L 274.019088 57.411943 
L 274.354223 51.125698 
L 274.689358 57.202518 
L 275.024493 60.893115 
L 275.359628 56.616746 
L 275.694764 56.362564 
L 276.029899 42.964496 
L 276.700169 66.580489 
L 277.035304 63.269593 
L 277.370439 50.155561 
L 277.705574 49.171062 
L 278.040709 45.90121 
L 278.375845 50.031365 
L 278.71098 43.536072 
L 279.046115 51.832418 
L 279.38125 44.254913 
L 279.716385 49.813458 
L 280.05152 62.142911 
L 280.386655 54.265775 
L 280.721791 54.669028 
L 281.056926 53.070858 
L 281.392061 41.399323 
L 281.727196 38.684562 
L 282.062331 49.289273 
L 282.397466 44.652497 
L 282.732601 52.203697 
L 283.067736 44.193251 
L 283.402872 52.494997 
L 283.738007 41.455992 
L 284.073142 38.126538 
L 284.743412 48.677617 
L 285.078547 37.068195 
L 285.413682 39.933561 
L 285.748818 45.830208 
L 286.083953 43.559383 
L 286.419088 44.442741 
L 286.754223 33.664791 
L 287.089358 34.704561 
L 287.424493 30.681125 
L 288.094764 44.907175 
L 288.765034 36.012078 
L 289.100169 38.92954 
L 289.435304 35.549463 
L 289.770439 50.127077 
L 290.105574 49.937173 
L 290.440709 40.538824 
L 290.775845 42.107321 
L 291.11098 34.331191 
L 291.446115 33.364122 
L 291.78125 35.666245 
L 292.116385 31.514643 
L 292.45152 29.479967 
L 292.786655 41.73338 
L 293.121791 46.87873 
L 293.792061 37.518356 
L 294.127196 28.677431 
L 294.462331 26.806039 
L 295.132601 40.863617 
L 295.802872 27.145043 
L 296.138007 36.281961 
L 296.473142 28.861965 
L 296.808277 47.240144 
L 297.143412 29.053478 
L 297.478547 28.758749 
L 297.813682 42.93747 
L 298.148818 30.913831 
L 298.483953 30.939232 
L 298.819088 32.145338 
L 299.154223 40.098574 
L 299.489358 35.95586 
L 299.824493 40.669638 
L 300.159628 35.160227 
L 300.494764 39.797468 
L 300.829899 31.843812 
L 301.165034 40.824935 
L 301.500169 28.885096 
L 301.835304 29.719847 
L 302.170439 41.3125 
L 302.840709 23.538908 
L 303.175845 29.184321 
L 303.51098 28.698275 
L 303.846115 41.25144 
L 304.18125 26.110989 
L 304.516385 26.577183 
L 305.186655 33.643556 
L 305.521791 26.333889 
L 305.856926 39.404803 
L 306.192061 35.356041 
L 306.527196 36.446207 
L 306.862331 21.963072 
L 307.532601 34.041094 
L 307.867736 21.082661 
L 308.202872 30.074237 
L 308.538007 33.468767 
L 308.873142 43.302027 
L 309.208277 31.977287 
L 309.543412 28.465434 
L 309.878547 28.354924 
L 310.213682 33.68347 
L 310.548818 31.001872 
L 310.883953 37.972458 
L 311.219088 28.498205 
L 311.554223 32.991384 
L 311.889358 30.628998 
L 312.224493 29.290846 
L 312.894764 22.290857 
L 313.229899 32.035926 
L 313.565034 27.300762 
L 313.900169 33.22612 
L 314.235304 21.509256 
L 314.905574 39.257672 
L 315.575845 29.082173 
L 315.91098 34.316813 
L 316.246115 36.398156 
L 316.916385 28.505244 
L 317.25152 27.110859 
L 317.586655 33.295888 
L 317.921791 30.745569 
L 318.256926 38.060574 
L 318.592061 35.463678 
L 318.927196 28.201777 
L 319.262331 39.851806 
L 319.597466 25.990237 
L 319.932601 20.378046 
L 320.267736 40.40941 
L 320.602872 40.834365 
L 320.938007 28.069445 
L 321.273142 33.042458 
L 321.608277 33.154953 
L 321.943412 24.722485 
L 322.278547 37.433097 
L 322.613682 32.177297 
L 322.948818 35.882768 
L 323.283953 42.958751 
L 323.619088 37.856624 
L 323.954223 43.198886 
L 324.289358 34.456575 
L 324.624493 42.196776 
L 324.959628 39.796822 
L 325.629899 46.294221 
L 325.965034 32.706581 
L 326.300169 40.768477 
L 326.635304 38.203239 
L 326.970439 37.686979 
L 327.305574 35.916351 
L 327.640709 35.755263 
L 327.975845 47.645698 
L 328.31098 38.142525 
L 328.646115 52.623494 
L 328.98125 37.010398 
L 329.316385 46.435081 
L 329.65152 39.85337 
L 330.321791 46.726426 
L 330.656926 50.847031 
L 330.992061 38.141382 
L 331.327196 52.852741 
L 331.662331 41.140749 
L 331.997466 57.274106 
L 332.332601 46.82898 
L 332.667736 60.953544 
L 333.002872 41.459195 
L 333.338007 44.33366 
L 333.673142 50.538978 
L 334.008277 50.893428 
L 334.343412 58.641691 
L 334.678547 43.038415 
L 335.013682 50.439928 
L 335.348818 51.198414 
L 336.019088 44.824624 
L 336.354223 49.629195 
L 336.689358 50.923327 
L 337.024493 64.777255 
L 337.359628 52.607492 
L 337.694764 47.553973 
L 338.029899 46.131494 
L 338.365034 49.679412 
L 338.700169 64.985958 
L 339.035304 62.856083 
L 339.370439 59.781728 
L 339.705574 65.277273 
L 340.040709 61.069483 
L 340.375845 61.20541 
L 340.71098 67.531946 
L 341.38125 54.37051 
L 341.716385 62.536765 
L 342.05152 65.36954 
L 342.386655 53.982191 
L 342.721791 60.599169 
L 343.056926 57.764122 
L 343.392061 57.450835 
L 343.727196 73.953922 
L 344.062331 52.111475 
L 344.397466 66.123258 
L 344.732601 67.438085 
L 345.067736 60.285791 
L 345.402872 77.731057 
L 345.738007 64.50295 
L 346.073142 69.006762 
L 346.408277 81.303489 
L 346.743412 62.101898 
L 347.413682 79.640498 
L 347.748818 59.79573 
L 348.083953 62.424164 
L 348.419088 68.450948 
L 348.754223 65.868144 
L 349.089358 69.188649 
L 349.424493 74.558299 
L 349.759628 70.985611 
L 350.094764 76.386663 
L 350.429899 79.003216 
L 350.765034 79.536606 
L 351.100169 73.998936 
L 351.435304 71.313772 
L 351.770439 84.403049 
L 352.105574 67.403855 
L 352.440709 78.9325 
L 352.775845 85.36144 
L 353.11098 69.240205 
L 353.446115 82.366434 
L 353.78125 86.970814 
L 354.116385 82.696595 
L 354.45152 82.067208 
L 354.786655 85.642633 
L 355.121791 85.611772 
L 355.456926 85.727049 
L 355.792061 81.269244 
L 356.127196 88.342068 
L 356.462331 86.053662 
L 356.797466 71.047724 
L 357.132601 97.140252 
L 357.467736 88.224129 
L 357.802872 91.217917 
L 358.138007 98.698221 
L 358.473142 90.484472 
L 358.808277 89.485159 
L 359.143412 87.437083 
L 359.478547 91.780093 
L 359.813682 99.268804 
L 360.148818 87.311804 
L 360.483953 87.986746 
L 360.819088 93.124486 
L 361.154223 96.206361 
L 361.489358 95.028499 
L 361.824493 100.058181 
L 362.159628 92.201303 
L 362.494764 100.351631 
L 362.829899 101.833034 
L 363.165034 89.68001 
L 363.500169 102.38005 
L 363.835304 104.333738 
L 364.170439 98.170952 
L 364.505574 99.914764 
L 364.840709 104.647507 
L 365.175845 113.045129 
L 365.846115 103.005783 
L 366.18125 119.881608 
L 366.516385 102.572826 
L 366.85152 98.583951 
L 367.186655 102.960168 
L 367.521791 113.867081 
L 367.856926 103.994718 
L 368.192061 112.709869 
L 368.527196 116.702444 
L 368.862331 115.564331 
L 369.197466 107.764679 
L 369.532601 110.094865 
L 369.867736 125.618296 
L 370.202872 111.394877 
L 370.538007 109.331657 
L 370.873142 110.121545 
L 371.208277 103.220742 
L 371.543412 122.417189 
L 371.878547 116.480386 
L 372.213682 124.453895 
L 372.548818 116.410167 
L 372.883953 112.75786 
L 373.219088 104.608464 
L 373.554223 109.72515 
L 373.889358 110.253652 
L 374.224493 138.839695 
L 374.559628 120.263852 
L 374.894764 118.193969 
L 375.229899 124.181334 
L 375.565034 116.060589 
L 375.900169 120.722225 
L 376.235304 121.286025 
L 376.570439 120.825651 
L 376.905574 131.438693 
L 377.240709 116.298498 
L 377.575845 118.01539 
L 377.91098 125.462788 
L 378.246115 125.441793 
L 378.58125 132.184456 
L 378.58125 132.184456 
" clip-path="url(#pf763ae6a0d)" style="fill: none; stroke: #1f77b4; stroke-width: 1.5; stroke-linecap: square"/>
   </g>
   <g id="patch_3">
    <path d="M 43.78125 176.204281 
L 43.78125 9.884281 
" style="fill: none; stroke: #000000; stroke-width: 0.8; stroke-linejoin: miter; stroke-linecap: square"/>
   </g>
   <g id="patch_4">
    <path d="M 378.58125 176.204281 
L 378.58125 9.884281 
" style="fill: none; stroke: #000000; stroke-width: 0.8; stroke-linejoin: miter; stroke-linecap: square"/>
   </g>
   <g id="patch_5">
    <path d="M 43.78125 176.204281 
L 378.58125 176.204281 
" style="fill: none; stroke: #000000; stroke-width: 0.8; stroke-linejoin: miter; stroke-linecap: square"/>
   </g>
   <g id="patch_6">
    <path d="M 43.78125 9.884281 
L 378.58125 9.884281 
" style="fill: none; stroke: #000000; stroke-width: 0.8; stroke-linejoin: miter; stroke-linecap: square"/>
   </g>
  </g>
 </g>
 <defs>
  <clipPath id="pf763ae6a0d">
   <rect x="43.78125" y="9.884281" width="334.8" height="166.32"/>
  </clipPath>
 </defs>
</svg>
